<?xml version="1.0" encoding="UTF-8" standalone="no"?>
<!DOCTYPE svg PUBLIC "-//W3C//DTD SVG 1.1//EN" "http://www.w3.org/Graphics/SVG/1.1/DTD/svg11.dtd">
<svg width="100%" height="100%" viewBox="0 0 1850 1850" version="1.1" xmlns="http://www.w3.org/2000/svg" xmlns:xlink="http://www.w3.org/1999/xlink" xml:space="preserve" xmlns:serif="http://www.serif.com/" style="fill-rule:evenodd;clip-rule:evenodd;stroke-linejoin:round;stroke-miterlimit:2;">
    <g transform="matrix(1,0,0,-1,30.3729,1682.95)">
        <g id="g3027">
            <path id="path3029" d="M1408,608L1408,288C1408,208.667 1379.83,140.833 1323.5,84.5C1267.17,28.167 1199.33,0 1120,0L288,0C208.667,0 140.833,28.167 84.5,84.5C28.167,140.833 0,208.667 0,288L0,1120C0,1199.33 28.167,1267.17 84.5,1323.5C140.833,1379.83 208.667,1408 288,1408L992,1408C1001.33,1408 1009,1405 1015,1399C1021,1393 1024,1385.33 1024,1376L1024,1312C1024,1302.67 1021,1295 1015,1289C1009,1283 1001.33,1280 992,1280L288,1280C244,1280 206.333,1264.33 175,1233C143.667,1201.67 128,1164 128,1120L128,288C128,244 143.667,206.333 175,175C206.333,143.667 244,128 288,128L1120,128C1164,128 1201.67,143.667 1233,175C1264.33,206.333 1280,244 1280,288L1280,608C1280,617.333 1283,625 1289,631C1295,637 1302.67,640 1312,640L1376,640C1385.33,640 1393,637 1399,631C1405,625 1408,617.333 1408,608ZM1792,1472L1792,960C1792,942.667 1785.67,927.667 1773,915C1760.33,902.333 1745.33,896 1728,896C1710.67,896 1695.67,902.333 1683,915L1507,1091L855,439C848.333,432.333 840.667,429 832,429C823.333,429 815.667,432.333 809,439L695,553C688.333,559.667 685,567.333 685,576C685,584.667 688.333,592.333 695,599L1347,1251L1171,1427C1158.33,1439.67 1152,1454.67 1152,1472C1152,1489.33 1158.33,1504.33 1171,1517C1183.67,1529.67 1198.67,1536 1216,1536L1728,1536C1745.33,1536 1760.33,1529.67 1773,1517C1785.67,1504.33 1792,1489.33 1792,1472Z" style="fill:rgb(0,114,63);fill-rule:nonzero;"/>
        </g>
    </g>
</svg>
